Patient4_TMGait_0pt4_01_right_02_EMG.mot
version=1
nRows=23
nColumns=33
inDegrees=no
endheader
time	1LAddLong	2LGlutMax	3LGlutMed	4LIliopsoas	5LSemiMemb	6LBicFemLong	7LRecFem	8LVastMed	9LVastLat	10LGasMed	11LTibAnt	12lTibPost	13LPeroneusLong	14LSol	15LExtDigLong	16LFlexDigLong	17RAddLong	18RGlutMax	19RGlutMed	20RIliopsoas	21RSemiMemb	22RBicFemLong	23RRecFem	24RVastMed	25RVastLat	26RGasMed	27RTibAnt	28RTibPost	29RPeroneusLong	30RSol	31RExtDigLong	32RFlexDigLong
2.555	0.016479	0.16632	-0.029602	0.001068	0	-0.010223	0.30716	-0.015411	0.088501	-0.00473	-0.011292	-0.011444	0.021515	-0.11276	-0.003815	0.015869	-0.082855	-0.35706	0.42343	-0.087433	-0.10971	0.1181	0.35309	-0.16892	0.092316	-0.011902	-0.12756	-0.017242	-0.75638	0.20935	0.001678	-0.007935
2.556	0.00351	0.17548	-0.018158	-0.005951	0.00946	-0.014954	0.29282	-0.010986	0.095978	0.22736	-0.014191	-0.015564	0.12955	-0.13275	-0.023041	0.007477	-0.055542	-0.46051	0.47607	0.037537	-0.18402	0.21835	0.34515	-0.34714	0.31097	-0.01297	-0.011902	-0.014801	-0.001068	0.12817	-0.002441	-0.014648
2.557	-0.002594	0.18677	0.017853	-0.002747	0.007782	-0.027313	0.27374	-0.012817	0.098572	0.27222	-0.040131	-0.009308	0.022278	-0.20065	-0.001526	0.007019	-0.041046	-0.35538	0.1416	0.011292	-0.080109	0.29068	0.25269	-0.39291	0.31067	-0.007019	0.013428	-0.014801	0.20477	0.10437	-0.002594	-0.011902
2.558	0.011902	0.16296	0.020294	-0.002136	0.005646	-0.014496	0.28473	-0.004425	0.09964	0.30411	-0.0383	-0.02121	-0.40634	-0.14954	0.060577	0.007324	-0.014648	-0.25391	-0.031433	0.004578	0.41138	0.33508	0.13062	-0.080719	0.41473	-0.005646	0.020294	-0.013885	-0.3067	0.061035	-0.006561	-0.006714
2.559	-0.002594	0.13321	0.015106	0.001984	0.014343	-0.0177	0.38055	-0.001678	0.096436	0.4248	-0.023193	-0.016327	-0.16525	-0.11566	0.068359	0.011902	-0.005493	-0.2153	-0.68344	0.12634	0.49347	0.21027	0.032196	0.007477	0.4866	-0.006409	0.033722	-0.015564	0.10132	0.041656	-0.002136	-0.013885
2.56	0.002441	0.13046	-0.029755	-0.00061	0.011902	-0.033112	0.45746	0.001068	0.08667	0.02121	-0.016632	-0.007324	0.027618	-0.20203	0.010223	0.017853	0.038147	-0.13001	-0.52994	-0.000305	0.41962	0.067902	-0.29465	-0.11475	0.31097	0.006104	-0.023804	-0.010834	-0.18662	-0.10712	-0.000916	-0.010986
2.561	0.001831	0.09903	-0.02182	-0.007019	0.011139	-0.014343	0.43427	0.001068	0.10941	-0.36621	-0.002441	-0.024109	0.027771	-0.17777	-0.016937	0.005341	0.027161	-0.068054	-0.32715	-0.035248	-0.13931	0.077667	-0.40665	0.1413	-0.13229	0.011139	0.004425	-0.016022	-1.6826	-0.12131	-0.001373	-0.00824
2.562	-0.00412	0.10407	-0.01709	-0.014496	0.020752	-0.033112	0.40985	0.007324	0.11093	-0.44098	0.006256	-0.025482	-0.036621	-0.15869	-0.030212	0.006714	0.014496	0.006866	-0.24689	-0.17425	-0.2887	0.058136	-0.04364	0.22827	-0.79117	0.001526	0.054626	-0.009003	0.93674	0.01709	0.00061	-0.002899
2.563	-0.005341	0.11414	-0.063934	-0.00885	0.014648	-0.039215	0.31067	0.008392	0.10407	-0.15732	0.023956	0.007477	-0.051575	-0.16785	-0.051575	-0.00412	-0.028229	0.022583	0.19486	-0.23941	-0.088959	-0.082245	0.15366	0.18387	-0.70816	-0.004883	0.10056	-0.007019	0.62042	0.083008	0.002594	-0.011902
2.564	-0.010986	0.083618	-0.056458	0.005951	0.015106	-0.022888	0.33905	0.006561	0.10651	0.045471	0.009766	0.008392	-0.030975	-0.043335	0.031586	-0.035095	-0.064087	0.035858	0.24384	-0.080719	0.1709	-0.14725	0.1944	0.075226	-0.56259	-0.004883	0.25635	-0.008392	-0.24765	-0.030975	0.000763	-0.00885
2.565	-0.008698	0.052948	-0.077209	0.008087	0.020294	-0.03006	0.4277	0.012512	0.13534	0.060425	-0.004578	-0.001373	-0.083618	0.032654	0.089417	-0.028381	-0.034485	0.069885	-0.11444	0.091095	-0.031891	-0.13718	0.095215	0.13351	-0.31158	-0.012054	0.039673	-0.00946	0.60928	-0.033569	-0.000916	-0.007935
2.566	-0.009613	0.020142	-0.10849	0.009613	0.020447	-0.020142	0.46677	0.006104	0.13687	-0.22659	-0.031281	-0.002441	-0.14633	-0.1355	0.084839	-0.015259	0.007629	0.1532	-0.49484	0.15076	-0.019684	-0.094147	-0.061188	0.12207	-0.15732	-0.013885	-0.18951	-0.006866	1.0965	0.000153	-0.001831	-0.01236
2.567	-0.003357	0.021515	-0.11887	-0.005646	0.009918	-0.02594	0.39642	0.011597	0.12466	-0.40909	-0.035095	-0.018768	0.027466	0.036163	0.056	-0.016022	0.01236	0.20355	-0.1474	0.11169	-0.20752	0.07843	-0.11551	0.007477	-0.095062	-0.013275	-0.11215	-0.010223	-0.3537	0.061188	-0.001526	-0.008392
2.568	-0.007324	0.021973	-0.13962	0.00824	0.02121	-0.024414	0.1532	0.013428	0.121	-0.088348	0.008087	-0.035858	0.21027	0.09491	-0.002289	-0.003357	-0.032806	0.31372	-1.0497	0.13367	-0.11246	0.082703	-0.019989	-0.059662	-0.071564	-0.017395	0.046082	-0.011444	-1.3004	0.09079	-0.002899	-0.009308
2.569	0.001373	0.021515	-0.15595	0.010986	0.018921	-0.046844	-0.027466	0.005493	0.11704	-0.12238	0.052185	-0.024567	0.42358	0.21393	0.093994	-0.012054	-0.062561	0.41107	-1.1967	0.071869	0.1767	0.062561	0.046844	-0.082855	-0.12054	-0.023956	-0.031433	-0.005341	-0.71365	0.17929	-0.001068	-0.007629
2.57	-0.002136	0.007019	-0.16632	-0.010071	0.01358	-0.038147	0.015564	-0.023651	0.10071	-0.21118	0.021973	-0.022278	0.32196	0.29266	0.008698	-0.012054	-0.027161	0.49759	0.28259	-0.088043	0.17716	-0.14694	0.070343	-0.10208	-0.16327	-0.012817	0.056152	-0.004425	0.31326	0.05722	0	-0.018463
2.571	-0.010376	0.054474	-0.17227	0.002289	0.018768	-0.05188	0.031738	0.056763	0.103	-0.17258	-0.031433	-0.006561	0.085907	0.15106	-0.14496	-0.006714	-0.012054	0.56351	0.5043	-0.016937	0.14481	-0.30212	-0.11185	0.085754	-0.1062	-0.016327	-0.031586	-0.003357	1.169	0.080719	0.012665	-0.020447
2.572	-0.005035	0.033569	-0.15625	-0.010681	0.016632	-0.028229	-0.09079	0.036469	0.09079	-0.082245	0.023193	-0.001068	-0.63019	0.080414	-0.16419	-0.01358	0.018158	0.54733	0.51682	-0.012665	0.13565	-0.40192	-0.19028	0.22507	0.054474	-0.005341	-0.071411	-0.00473	0.50156	0.031433	-0.007172	-0.027924
2.573	-0.002899	-0.009308	-0.1358	-0.030518	0.020294	-0.033417	-0.2153	0.020599	0.076599	0.008087	0.038757	-0.008087	-0.4776	0.075836	-0.14801	-0.028992	0.035553	0.51407	-0.19409	-0.024872	0.24063	-0.4361	-0.2504	0.39444	0.06012	-0.011139	0.10864	-0.004425	0.23239	-0.018005	0.000458	-0.027924
2.574	-0.008087	-0.011139	-0.12253	-0.013123	0.017548	-0.068512	-0.19134	0.017853	0.064545	0.037231	0.021667	-0.002441	-0.32166	0.05127	-0.069122	-0.012054	0.090942	0.59662	0.071564	0.096741	0.25223	-0.40329	-0.11612	0.33447	0.029144	-0.007324	0.18158	-0.000458	0.52231	-0.016174	0.000763	-0.025024
2.575	-0.004578	-0.007324	-0.12665	0	0.019989	-0.056	0.004578	0.010071	0.076447	0.056	0.016327	-0.002747	-0.064545	-0.054474	0.11002	-0.010071	0.10117	0.62256	0.5719	0.14893	-0.041962	-0.29083	-0.013428	0.17044	-0.080109	-0.005341	-0.046844	-0.003815	0.6868	0.035248	-0.000458	-0.024567
2.576	0.002899	-0.011444	-0.11948	-0.004578	0.019684	-0.078583	0.085754	0.008087	0.094757	0.070648	0.007172	-0.001068	-0.22705	0.065155	-0.16998	-0.013275	0.065765	0.699	1.022	0.085144	-0.76599	-0.033264	0.055847	0.10101	-0.095062	-0.011139	-0.090332	-0.002289	0.019684	0.04303	-0.001526	-0.026093
2.577	-0.001984	0.014648	-0.10681	0.005798	0.02182	-0.086365	0.1149	0.008698	0.078888	0.031128	0.020599	0.003357	-0.09903	0.13809	-0.17334	-0.029297	-0.080261	0.72876	0.40817	0.048065	-0.63309	0.2861	0.084686	0.092316	-0.078735	-0.019531	0.3801	-0.004578	0.59128	0.10803	0.002136	-0.014343
